<svg xmlns="http://www.w3.org/2000/svg" viewBox="0 0 159.25 54.00" width="159" height="54" role="img" aria-label="fungrid"><title>fungrid</title><g transform="translate(1 2)"><path d="M8.64 40.48Q6.5280000000000005 40.48 5.616 39.831999999999994Q4.704 39.184 4.5120000000000005 38.152Q4.32 37.12 4.32 36.064V14.416Q4.32 12.879999999999999 4.896000000000001 11.223999999999998Q5.472 9.567999999999998 6.696 8.151999999999997Q7.92 6.735999999999997 9.815999999999999 5.847999999999999Q11.712 4.960000000000001 14.352 4.960000000000001Q15.408 4.960000000000001 16.416 5.152000000000001Q17.424 5.344000000000001 18.072 6.231999999999999Q18.72 7.119999999999997 18.72 9.328Q18.72 11.488 18.048000000000002 12.4Q17.376 13.312000000000001 16.368000000000002 13.48Q15.36 13.648 14.304 13.648Q13.968 13.648 13.728 13.696Q13.488 13.744 13.344000000000001 13.815999999999999Q13.200000000000001 13.887999999999998 13.128 14.031999999999998Q13.056000000000001 14.175999999999998 13.056000000000001 14.32V36.16Q13.056000000000001 37.216 12.864 38.2Q12.672 39.184 11.736 39.831999999999994Q10.8 40.48 8.64 40.48ZM3.3120000000000003 16.336H8.928L15.552 16.096Q16.608 16.096 17.592 16.288Q18.576 16.48 19.224 17.392Q19.872 18.304 19.872 20.512Q19.872 22.528 19.224 23.439999999999998Q18.576 24.352 17.592 24.592Q16.608 24.832 15.504 24.832L9.408 24.688H3.12Q1.488 24.592 0.864 23.631999999999998Q0.24 22.672 0.24 20.464Q0.24 18.4 1.008 17.368Q1.776 16.336 3.3120000000000003 16.336ZM31.968000000000004 40.336Q29.664 40.336 27.672 39.424Q25.68 38.512 24.192 36.856Q22.704 35.2 21.888 32.992000000000004Q21.072000000000003 30.784 21.072000000000003 28.192V20.368Q21.072000000000003 19.264 21.264000000000003 18.28Q21.456000000000003 17.296 22.368000000000002 16.648Q23.28 16.0 25.44 16.0Q27.648000000000003 16.0 28.536 16.648Q29.424 17.296 29.616 18.304000000000002Q29.808 19.312 29.808 20.416V28.192Q29.808 29.296 30.216 30.064Q30.624000000000002 30.832 31.416 31.240000000000002Q32.208 31.648 33.264 31.648Q34.32 31.648 35.088 31.216Q35.856 30.784 36.288 30.016Q36.72 29.247999999999998 36.72 28.192V20.32Q36.72 19.216 36.912 18.232Q37.104 17.248 38.016 16.624000000000002Q38.928 16.0 41.088 16.0Q43.29600000000001 16.0 44.184000000000005 16.648Q45.072 17.296 45.264 18.304000000000002Q45.456 19.312 45.456 20.368V36.16Q45.456 37.216 45.264 38.176Q45.072 39.136 44.160000000000004 39.760000000000005Q43.248000000000005 40.384 41.088 40.384Q39.504000000000005 40.384 38.616 40.024Q37.728 39.664 37.344 39.112Q36.96 38.56 36.888000000000005 38.008Q36.816 37.456 36.816 37.072L37.632000000000005 37.312Q37.632000000000005 37.312 37.248000000000005 37.768Q36.864000000000004 38.224 36.120000000000005 38.824Q35.376000000000005 39.424 34.344 39.879999999999995Q33.312 40.336 31.968000000000004 40.336ZM52.175999999999995 40.384Q50.016 40.384 49.104 39.736000000000004Q48.192 39.088 48.024 38.08Q47.855999999999995 37.072 47.855999999999995 36.016V20.224Q47.855999999999995 19.168 48.047999999999995 18.208Q48.239999999999995 17.248 49.152 16.648Q50.064 16.048 52.224 16.048Q54.19199999999999 16.048 55.08 16.552Q55.967999999999996 17.056 56.208 17.776Q56.44799999999999 18.496 56.42399999999999 19.095999999999997Q56.4 19.695999999999998 56.495999999999995 19.84L56.111999999999995 20.128Q56.06399999999999 19.408 56.663999999999994 18.688000000000002Q57.263999999999996 17.968 58.248 17.368000000000002Q59.232 16.768 60.36 16.408Q61.488 16.048 62.495999999999995 16.048Q64.896 16.048 66.72 16.96Q68.544 17.872 69.768 19.528Q70.99199999999999 21.184 71.61599999999999 23.392000000000003Q72.24 25.6 72.24 28.192V36.064Q72.24 37.12 72.048 38.128Q71.856 39.136 70.96799999999999 39.760000000000005Q70.08 40.384 67.872 40.384Q65.664 40.384 64.752 39.736000000000004Q63.839999999999996 39.088 63.647999999999996 38.08Q63.455999999999996 37.072 63.455999999999996 36.016V28.192Q63.455999999999996 27.088 63.048 26.32Q62.64 25.552 61.896 25.144Q61.152 24.735999999999997 60.047999999999995 24.735999999999997Q58.992 24.735999999999997 58.2 25.168Q57.408 25.6 56.976 26.368000000000002Q56.544 27.136 56.544 28.192V36.064Q56.544 37.12 56.352 38.128Q56.16 39.136 55.272 39.760000000000005Q54.384 40.384 52.175999999999995 40.384Z" fill="#15213F"/><path d="M85.824 50.56Q84.144 50.56 82.392 50.104Q80.64 49.647999999999996 79.152 48.879999999999995Q77.664 48.112 76.75200000000001 47.224000000000004Q75.84 46.336 75.84 45.472Q75.84 44.512 76.2 43.696Q76.56 42.88 77.28 42.112Q78.048 41.296 78.624 40.816Q79.2 40.336 80.016 40.336Q80.736 40.336 81.28800000000001 40.672Q81.84 41.008 82.416 41.416Q82.992 41.824 83.832 42.16Q84.672 42.496 85.968 42.496Q86.688 42.496 87.31200000000001 42.184Q87.936 41.872 88.392 41.32Q88.848 40.768 89.136 40.024Q89.424 39.28 89.424 38.416V18.64Q89.616 17.2 90.624 16.576Q91.632 15.951999999999998 93.696 15.951999999999998Q95.80799999999999 15.951999999999998 96.672 16.576Q97.536 17.2 97.70400000000001 18.183999999999997Q97.872 19.168 97.872 20.224V38.704Q97.872 41.536 96.792 43.744Q95.712 45.952 93.936 47.464Q92.16 48.976 90.048 49.768Q87.936 50.56 85.824 50.56ZM84.624 39.712Q82.512 39.712 80.568 38.752Q78.624 37.792 77.088 36.112Q75.55199999999999 34.432 74.66399999999999 32.296Q73.776 30.16 73.776 27.808Q73.776 25.552 74.66399999999999 23.439999999999998Q75.55199999999999 21.328 77.112 19.671999999999997Q78.672 18.016 80.616 17.031999999999996Q82.56 16.048 84.624 16.048Q86.736 16.048 88.10400000000001 16.912Q89.47200000000001 17.776 90.26400000000001 19.36Q91.056 20.944 91.392 23.128Q91.728 25.311999999999998 91.728 27.951999999999998Q91.728 31.6 91.12799999999999 34.24Q90.52799999999999 36.88 88.99199999999999 38.29600000000001Q87.456 39.712 84.624 39.712ZM85.776 31.264Q86.688 31.264 87.432 30.784Q88.176 30.304000000000002 88.632 29.536Q89.088 28.768 89.088 27.904Q89.088 26.944 88.632 26.176000000000002Q88.176 25.408 87.408 24.952Q86.64 24.496000000000002 85.68 24.496000000000002Q84.768 24.496000000000002 84.0 24.976Q83.232 25.456 82.776 26.223999999999997Q82.32 26.991999999999997 82.32 27.904Q82.32 28.768 82.8 29.536Q83.28 30.304000000000002 84.072 30.784Q84.864 31.264 85.776 31.264ZM104.592 40.432Q102.43199999999999 40.432 101.51999999999998 39.784000000000006Q100.60799999999999 39.136 100.44 38.104Q100.27199999999999 37.072 100.27199999999999 36.016V20.368Q100.27199999999999 19.264 100.464 18.28Q100.65599999999999 17.296 101.56799999999998 16.671999999999997Q102.47999999999999 16.048 104.63999999999999 16.048Q106.752 16.048 107.63999999999999 16.624Q108.52799999999999 17.2 108.72 17.896Q108.91199999999999 18.592 108.91199999999999 18.976L108.14399999999999 18.688Q108.14399999999999 18.688 108.52799999999999 18.256Q108.91199999999999 17.823999999999998 109.65599999999999 17.247999999999998Q110.39999999999999 16.672 111.43199999999999 16.240000000000002Q112.464 15.808 113.75999999999999 15.808Q114.192 15.808 114.84 15.879999999999999Q115.488 15.951999999999998 116.232 16.144Q116.976 16.336 117.624 16.72Q118.27199999999999 17.104 118.67999999999999 17.728Q119.088 18.352 119.088 19.264Q119.088 21.663999999999998 118.056 23.344Q117.024 25.024 115.344 25.024Q114.43199999999999 25.024 114.04799999999999 24.904Q113.66399999999999 24.784 113.49599999999998 24.664Q113.32799999999999 24.544 113.112 24.424Q112.89599999999999 24.304000000000002 112.32 24.304000000000002Q111.6 24.304000000000002 111.0 24.472Q110.39999999999999 24.64 109.94399999999999 24.976Q109.488 25.311999999999998 109.24799999999999 25.768Q109.008 26.224 109.008 26.752V36.112Q109.008 37.168 108.816 38.176Q108.624 39.184 107.71199999999999 39.808Q106.8 40.432 104.592 40.432ZM125.088 40.432Q122.928 40.432 122.01599999999999 39.784000000000006Q121.104 39.136 120.936 38.128Q120.768 37.12 120.768 36.064V20.416Q120.768 19.36 120.96 18.375999999999998Q121.15199999999999 17.392 122.064 16.744Q122.976 16.096 125.136 16.096Q127.29599999999999 16.096 128.184 16.744Q129.072 17.392 129.264 18.4Q129.456 19.408 129.456 20.512V36.112Q129.456 37.168 129.264 38.176Q129.072 39.184 128.184 39.808Q127.29599999999999 40.432 125.088 40.432ZM125.088 13.744Q122.928 13.744 122.01599999999999 13.096Q121.104 12.448 120.936 11.44Q120.768 10.431999999999999 120.768 9.375999999999998Q120.768 8.271999999999998 120.96 7.288Q121.15199999999999 6.304000000000002 122.064 5.68Q122.976 5.055999999999997 125.136 5.055999999999997Q127.29599999999999 5.055999999999997 128.184 5.703999999999997Q129.072 6.351999999999997 129.264 7.359999999999998Q129.456 8.367999999999999 129.456 9.424Q129.456 10.48 129.264 11.488Q129.072 12.495999999999999 128.184 13.12Q127.29599999999999 13.744 125.088 13.744ZM142.464 40.336Q140.304 40.336 138.312 39.352000000000004Q136.32 38.368 134.76 36.664Q133.20000000000002 34.96 132.288 32.752Q131.376 30.544 131.376 28.144Q131.376 25.84 132.288 23.68Q133.20000000000002 21.52 134.784 19.816Q136.368 18.112 138.36 17.104Q140.352 16.096 142.464 16.096Q144.768 16.096 146.448 17.08Q148.12800000000001 18.064 149.23200000000003 19.744Q150.336 21.424 150.888 23.584Q151.44 25.744 151.488 28.048000000000002Q151.536 30.4 151.008 32.584Q150.48000000000002 34.768 149.376 36.519999999999996Q148.272 38.272 146.56799999999998 39.304Q144.864 40.336 142.464 40.336ZM143.616 31.695999999999998Q144.52800000000002 31.695999999999998 145.296 31.216Q146.064 30.736 146.54399999999998 29.944000000000003Q147.024 29.152 147.024 28.240000000000002Q147.024 27.28 146.56799999999998 26.512Q146.112 25.744 145.344 25.264Q144.576 24.784 143.568 24.784Q142.608 24.784 141.816 25.24Q141.024 25.695999999999998 140.56799999999998 26.488Q140.112 27.28 140.112 28.240000000000002Q140.112 29.152 140.59199999999998 29.944000000000003Q141.072 30.736 141.888 31.216Q142.704 31.695999999999998 143.616 31.695999999999998ZM151.488 40.384Q149.568 40.384 148.608 39.808Q147.648 39.232 147.312 37.984V9.424Q147.312 8.367999999999999 147.43200000000002 7.359999999999998Q147.55200000000002 6.351999999999997 148.416 5.703999999999997Q149.28 5.055999999999997 151.44 5.055999999999997Q153.648 5.055999999999997 154.536 5.68Q155.424 6.304000000000002 155.61599999999999 7.288Q155.808 8.271999999999998 155.808 9.375999999999998V36.016Q155.808 37.072 155.61599999999999 38.08Q155.424 39.088 154.536 39.736000000000004Q153.648 40.384 151.488 40.384Z" fill="#FF7A45"/></g></svg>
